<?xml version="1.0" encoding="utf-8"?>
<!-- Generator: Adobe Illustrator 28.0.0, SVG Export Plug-In . SVG Version: 6.00 Build 0)  -->
<svg version="1.1" id="Layer_1" xmlns="http://www.w3.org/2000/svg" xmlns:xlink="http://www.w3.org/1999/xlink" x="0px" y="0px"
	 viewBox="0 0 62 62" style="enable-background:new 0 0 62 62;" xml:space="preserve">
<style type="text/css">
	.st0{fill:#343449;}
	.st1{fill:#51516C;}
	.st2{fill:#2B2B3E;}
	.st3{fill:#E5BC0E;}
	.st4{fill:#FFFFFF;}
</style>
<path class="st0" d="M15.5,0c-2.1,0-3.9,1.7-3.9,3.9v54.2c0,2.1,1.7,3.9,3.9,3.9h38.8c2.1,0,3.9-1.7,3.9-3.9V15.5L42.6,0H15.5z"/>
<path class="st1" d="M46.5,15.5h11.6L42.6,0v11.6C42.6,13.8,44.4,15.5,46.5,15.5z"/>
<path class="st2" d="M58.1,27.1L46.5,15.5h11.6V27.1z"/>
<path class="st3" d="M50.4,50.4c0,1.1-0.9,1.9-1.9,1.9H5.8c-1.1,0-1.9-0.9-1.9-1.9V31c0-1.1,0.9-1.9,1.9-1.9h42.6
	c1.1,0,1.9,0.9,1.9,1.9V50.4z"/>
<path class="st2" d="M48.4,52.3H11.6v1.9h36.8c1.1,0,1.9-0.9,1.9-1.9v-1.9C50.4,51.4,49.5,52.3,48.4,52.3z"/>
<g id="gHNTcN_00000089560633134755787260000015919255083447884687_">
	<g>
		<path class="st4" d="M13.6,48.5c0-0.2,0.2-0.4,0.2-0.4c0.1-0.2,0.3-0.3,0.5-0.6c-0.6,0-1.1,0-1.7,0c-0.9,0-1.4-0.3-1.4-0.8
			c0-0.4,0.6-0.7,1.4-0.7c0,0,0.1,0,0.1,0c0.9,0,2.1,0.2,2.7-0.1c0.7-0.4,1-1.2,1.4-1.8c0.1-0.1,0.1-0.3,0-0.4c-1.6-1.1-2-2.5-2.2-4
			c-0.2-1.8,0.2-3.6,1.3-5.3c0.4-0.5,0.8-1,1.4-1.4c1.1-0.8,2.6-1,4.1-0.6c1.5,0.4,2,1.2,2.1,2.2c0.2,1.8-0.6,3.5-1.5,5.1
			c-0.5,1-1.2,2-1.8,3.1c1.5-0.4,2.6-1,3.6-1.7c0.7-0.5,1.3-1,1.9-1.4c0.4-0.3,0.8-0.7,1.5-0.5c0.7,0.1,0.7,0.5,0.9,0.9
			c0.4,0.7,0.8,1.5,1.4,2.2c0.7,0.9,1.5,0.9,2.6,0.2c0.6-0.4,1.2-0.9,1.7-1.4c0.3-0.3,0.7-0.5,1.3-0.5c0.6,0.1,0.8,0.4,0.9,0.7
			c0.1,0.6,0.8,0.9,1.5,1c1.3,0.2,2.6,0.4,3.9,0.5c0.9,0.1,1.4,0.3,1.4,0.8c0,0.5-0.5,0.7-1.4,0.7c-1.7,0-3.4-0.1-5-0.7
			c-0.6-0.2-1.2-0.5-1.9-0.8c-0.3,0.2-0.6,0.5-1,0.7c-2,1.2-4.1,1-5.7-0.4c-0.6-0.5-1-1.1-1.5-1.8c-0.4,0.3-0.7,0.7-1.2,0.9
			c-1.2,0.6-2.4,1.2-3.6,1.7c-0.3,0.1-0.8,0.3-1.1,0.3c-1.8-0.1-2,0.8-2.6,1.6c0.4,0,0.7,0,0.9,0c7.4,0,14.8,0,22.2,0
			c0.2,0,0.5,0,0.7,0c0.7,0,1.1,0.3,1.1,0.7c0,0.4-0.4,0.7-1,0.8c-0.3,0-0.5,0-0.8,0c-7.8,0-15.6,0-23.5,0c-0.6,0-0.9,0.1-1.2,0.5
			C13.7,50.2,13.6,48.7,13.6,48.5z M18.1,42.3c1.2-1.8,2.4-3.6,2.9-5.4c0.2-0.7,0.3-1.5,0.3-2.3c0-0.8-1.3-1.1-2.2-0.6
			c-0.4,0.2-0.8,0.6-1,0.9c-1.2,1.6-1.5,3.3-1.2,5C17.1,40.7,17.3,41.6,18.1,42.3z"/>
	</g>
</g>
</svg>
